REM DIRINDEX 1\2\5,1\2\6,1\2\7,1\2\8,1\3\9,1\3\10,1\3\11,1\4\12,1\4\13,1\4\14,1\4\15,1\4\16
REM DIRNAME folder01,folder02,folder03,folder04,folder05,folder06,folder07,folder08,folder09,folder10,folder11,folder12,folder13,folder14,folder15,folder16
TITLE ""
FILE "1200_sec04_1401_1410.mp3" MP3
  TRACK 01 AUDIO
    TITLE "0:"
    INDEX 01 00:00:00
  TRACK 02 AUDIO
    TITLE "12:cjc034_09343"
    INDEX 01 00:00:17
  TRACK 03 AUDIO
    TITLE "0:"
    INDEX 01 00:01:71
  TRACK 04 AUDIO
    TITLE "13:cjc034_09344"
    INDEX 01 00:02:34
  TRACK 05 AUDIO
    TITLE "0:"
    INDEX 01 00:03:68
  TRACK 06 AUDIO
    TITLE "14:cjc034_09345"
    INDEX 01 00:04:27
  TRACK 07 AUDIO
    TITLE "0:"
    INDEX 01 00:06:08
  TRACK 08 AUDIO
    TITLE "15:cjc034_09346"
    INDEX 01 00:06:43
  TRACK 09 AUDIO
    TITLE "0:"
    INDEX 01 00:10:29
  TRACK 10 AUDIO
    TITLE "12:cjc034_09347"
    INDEX 01 00:11:60
  TRACK 11 AUDIO
    TITLE "0:"
    INDEX 01 00:13:65
  TRACK 12 AUDIO
    TITLE "13:cjc034_09348"
    INDEX 01 00:14:21
  TRACK 13 AUDIO
    TITLE "0:"
    INDEX 01 00:16:38
  TRACK 14 AUDIO
    TITLE "14:cjc034_09349"
    INDEX 01 00:16:71
  TRACK 15 AUDIO
    TITLE "0:"
    INDEX 01 00:18:74
  TRACK 16 AUDIO
    TITLE "15:cjc034_09350"
    INDEX 01 00:19:32
  TRACK 17 AUDIO
    TITLE "0:"
    INDEX 01 00:23:08
  TRACK 18 AUDIO
    TITLE "16:cjc034_09351"
    INDEX 01 00:24:43
  TRACK 19 AUDIO
    TITLE "0:"
    INDEX 01 00:28:00
  TRACK 20 AUDIO
    TITLE "12:cjc034_09352"
    INDEX 01 00:29:01
  TRACK 21 AUDIO
    TITLE "0:"
    INDEX 01 00:30:32
  TRACK 22 AUDIO
    TITLE "13:cjc034_09353"
    INDEX 01 00:30:65
  TRACK 23 AUDIO
    TITLE "0:"
    INDEX 01 00:34:00
  TRACK 24 AUDIO
    TITLE "14:cjc034_09354"
    INDEX 01 00:34:30
  TRACK 25 AUDIO
    TITLE "0:"
    INDEX 01 00:35:59
  TRACK 26 AUDIO
    TITLE "15:cjc034_09355"
    INDEX 01 00:36:17
  TRACK 27 AUDIO
    TITLE "0:"
    INDEX 01 00:41:32
  TRACK 28 AUDIO
    TITLE "12:cjc034_09356"
    INDEX 01 00:42:66
  TRACK 29 AUDIO
    TITLE "0:"
    INDEX 01 00:44:32
  TRACK 30 AUDIO
    TITLE "13:cjc034_09357"
    INDEX 01 00:44:63
  TRACK 31 AUDIO
    TITLE "0:"
    INDEX 01 00:47:62
  TRACK 32 AUDIO
    TITLE "14:cjc034_09358"
    INDEX 01 00:48:22
  TRACK 33 AUDIO
    TITLE "0:"
    INDEX 01 00:49:59
  TRACK 34 AUDIO
    TITLE "15:cjc034_09359"
    INDEX 01 00:50:19
  TRACK 35 AUDIO
    TITLE "0:"
    INDEX 01 00:53:11
  TRACK 36 AUDIO
    TITLE "12:cjc034_09360"
    INDEX 01 00:54:46
  TRACK 37 AUDIO
    TITLE "0:"
    INDEX 01 00:58:03
  TRACK 38 AUDIO
    TITLE "13:cjc034_09361"
    INDEX 01 00:58:36
  TRACK 39 AUDIO
    TITLE "0:"
    INDEX 01 01:00:74
  TRACK 40 AUDIO
    TITLE "14:cjc034_09362"
    INDEX 01 01:01:34
  TRACK 41 AUDIO
    TITLE "0:"
    INDEX 01 01:04:66
  TRACK 42 AUDIO
    TITLE "15:cjc034_09363"
    INDEX 01 01:05:22
  TRACK 43 AUDIO
    TITLE "0:"
    INDEX 01 01:10:08
  TRACK 44 AUDIO
    TITLE "12:cjc034_09364"
    INDEX 01 01:11:41
  TRACK 45 AUDIO
    TITLE "0:"
    INDEX 01 01:13:06
  TRACK 46 AUDIO
    TITLE "13:cjc034_09365"
    INDEX 01 01:13:40
  TRACK 47 AUDIO
    TITLE "0:"
    INDEX 01 01:17:06
  TRACK 48 AUDIO
    TITLE "14:cjc034_09366"
    INDEX 01 01:17:37
  TRACK 49 AUDIO
    TITLE "0:"
    INDEX 01 01:19:03
  TRACK 50 AUDIO
    TITLE "15:cjc034_09367"
    INDEX 01 01:19:36
  TRACK 51 AUDIO
    TITLE "0:"
    INDEX 01 01:22:29
  TRACK 52 AUDIO
    TITLE "12:cjc034_09368"
    INDEX 01 01:23:63
  TRACK 53 AUDIO
    TITLE "0:"
    INDEX 01 01:25:35
  TRACK 54 AUDIO
    TITLE "13:cjc034_09369"
    INDEX 01 01:25:70
  TRACK 55 AUDIO
    TITLE "0:"
    INDEX 01 01:28:18
  TRACK 56 AUDIO
    TITLE "14:cjc034_09370"
    INDEX 01 01:28:49
  TRACK 57 AUDIO
    TITLE "0:"
    INDEX 01 01:30:22
  TRACK 58 AUDIO
    TITLE "15:cjc034_09371"
    INDEX 01 01:30:56
  TRACK 59 AUDIO
    TITLE "0:"
    INDEX 01 01:35:29
  TRACK 60 AUDIO
    TITLE "12:cjc034_09372"
    INDEX 01 01:36:66
  TRACK 61 AUDIO
    TITLE "0:"
    INDEX 01 01:38:26
  TRACK 62 AUDIO
    TITLE "13:cjc034_09373"
    INDEX 01 01:38:59
  TRACK 63 AUDIO
    TITLE "0:"
    INDEX 01 01:40:05
  TRACK 64 AUDIO
    TITLE "14:cjc034_09374"
    INDEX 01 01:40:38
  TRACK 65 AUDIO
    TITLE "0:"
    INDEX 01 01:42:00
  TRACK 66 AUDIO
    TITLE "15:cjc034_09375"
    INDEX 01 01:42:35
  TRACK 67 AUDIO
    TITLE "0:"
    INDEX 01 01:46:19
  TRACK 68 AUDIO
    TITLE "12:cjc034_09376"
    INDEX 01 01:47:54
  TRACK 69 AUDIO
    TITLE "0:"
    INDEX 01 01:49:08
  TRACK 70 AUDIO
    TITLE "13:cjc034_09377"
    INDEX 01 01:49:41
  TRACK 71 AUDIO
    TITLE "0:"
    INDEX 01 01:53:53
  TRACK 72 AUDIO
    TITLE "14:cjc034_09378"
    INDEX 01 01:54:11
  TRACK 73 AUDIO
    TITLE "0:"
    INDEX 01 01:55:42
  TRACK 74 AUDIO
    TITLE "15:cjc034_09379"
    INDEX 01 01:56:02
  TRACK 75 AUDIO
    TITLE "0:"
    INDEX 01 02:00:74
  TRACK 76 AUDIO
    TITLE "12:cjc034_09380"
    INDEX 01 02:02:52
  TRACK 77 AUDIO
    TITLE "0:"
    INDEX 01 02:04:12
  TRACK 78 AUDIO
    TITLE "13:cjc034_09381"
    INDEX 01 02:04:45
  TRACK 79 AUDIO
    TITLE "0:"
    INDEX 01 02:06:20
  TRACK 80 AUDIO
    TITLE "14:cjc034_09382"
    INDEX 01 02:06:55
  TRACK 81 AUDIO
    TITLE "0:"
    INDEX 01 02:08:17
  TRACK 82 AUDIO
    TITLE "15:cjc034_09383"
    INDEX 01 02:08:48
  TRACK 83 AUDIO
    TITLE "0:"
    INDEX 01 02:12:38
